<svg xmlns="http://www.w3.org/2000/svg" width="942.745" height="942.745" viewBox="0 0 942.745 942.745"><defs><style>.a{fill:#171716;}</style></defs><g transform="translate(-488.44 -68.439)"><path d="M301.919,0C135.173,0,0,135.174,0,301.921s135.173,301.92,301.919,301.92,301.926-135.174,301.926-301.92S468.667,0,301.919,0Zm0,599.1c-155.544,0-281.638-133.054-281.638-297.179S146.375,4.742,301.919,4.742,583.558,137.8,583.558,301.921,457.465,599.1,301.919,599.1Z" transform="translate(534.323 517.512) rotate(-42)"/><path class="a" d="M333.764,0C149.431,0,0,149.432,0,333.771S149.431,667.536,333.764,667.536,667.536,518.1,667.535,333.771,518.1,0,333.764,0Zm0,662.295c-171.95,0-311.344-147.088-311.344-328.524S161.814,5.247,333.764,5.247,645.109,152.33,645.11,333.771,505.717,662.295,333.764,662.295Z" transform="translate(488.439 515.108) rotate(-42)"/></g></svg>