<svg xmlns="http://www.w3.org/2000/svg" width="429.425" height="101.14" viewBox="0 0 429.425 101.14"><defs><style>.a{fill:#171716;}.b{fill:#040506;}</style></defs><g transform="translate(-2116.305 -206.606)"><path class="a" d="M2229.274,206.606a50.57,50.57,0,1,0,50.57,50.57A50.57,50.57,0,0,0,2229.274,206.606Zm0,100.346c-26.053,0-47.173-22.286-47.173-49.775s21.12-49.775,47.173-49.775,47.172,22.285,47.172,49.775S2255.327,306.952,2229.274,306.952Z" transform="translate(-10.509 0)"/><path class="a" d="M2192.24,232.2c-14,20.434-8.329,48.661,12.668,63.049s49.369,9.486,63.37-10.947,8.33-48.662-12.667-63.049S2206.242,211.768,2192.24,232.2Zm75.442,51.693c-13.061,19.06-40.4,23.032-61.07,8.87s-26.834-41.093-13.773-60.154,40.4-23.032,61.069-8.871S2280.742,264.834,2267.682,283.9Z" transform="translate(-11.495 -1.077)"/><path class="b" d="M2466.452,231.211l37.954,59.228h5.543L2472,231.211Z" transform="translate(-58.97 -4.144)"/><path class="b" d="M2467.423,231.211a.629.629,0,0,0-.446,1.072s.07.027.193.079c.859.367,4.3,2.009,4.3,4.793v47.339c0,3.182-4.491,4.872-4.491,4.872a.629.629,0,0,0,.446,1.073h10.307a.629.629,0,0,0,.445-1.073s-4.49-1.69-4.49-4.871h0v-47.34" transform="translate(-59.028 -4.144)"/><path class="b" d="M2518.365,290.439h0V237.155c0-3.182,4.491-4.872,4.491-4.872a.629.629,0,0,0-.446-1.072H2512.1a.629.629,0,0,0-.446,1.072s.07.027.193.079c.86.367,4.3,2.009,4.3,4.793v53.284Z" transform="translate(-66.553 -4.144)"/><path class="b" d="M2427,235.929c0-.821.622-3.067,2.858-3.067l12.229.748a12.548,12.548,0,0,1,6.933,2.616h0a.565.565,0,0,0,.9-.562c-.169-.78-4.046-4.453-4.046-4.453h-28.443a.629.629,0,0,0-.446,1.072s4.492,1.69,4.492,4.872" transform="translate(-50.61 -4.144)"/><path class="b" d="M2446.564,261.336v.145c0,1.262-1.328,2.284-2.967,2.284H2425.75v2.048l18.255.674a2.581,2.581,0,0,1,2.559,2.263v.7h1.083v-8.118Z" transform="translate(-52.115 -9.217)"/><path class="b" d="M2155.727,261.336v.145c0,1.262-1.327,2.284-2.967,2.284h-24.5v2.048l24.909.674a2.58,2.58,0,0,1,2.558,2.263v.7h1.084v-8.118Z" transform="translate(-2.014 -9.217)"/><path class="b" d="M2427,236.884v49.792c0,.822.622,3.067,2.858,3.067l15.555-.748a12.553,12.553,0,0,0,6.933-2.616h0a.565.565,0,0,1,.9.561c-.168.78-4.046,4.454-4.046,4.454h-31.769a.629.629,0,0,1-.446-1.073s4.492-1.69,4.492-4.871v-47.34" transform="translate(-50.61 -5.099)"/><path class="b" d="M2593.052,235.929c0-.821.622-3.067,2.859-3.067l12.229.748a12.547,12.547,0,0,1,6.933,2.616h0a.565.565,0,0,0,.9-.562c-.168-.78-4.047-4.453-4.047-4.453h-28.442a.629.629,0,0,0-.446,1.072s4.492,1.69,4.492,4.872" transform="translate(-78.574 -4.144)"/><path class="b" d="M2612.611,261.336v.145c0,1.262-1.328,2.284-2.967,2.284H2591.8v2.048l18.255.674a2.581,2.581,0,0,1,2.559,2.263v.7h1.083v-8.118Z" transform="translate(-80.08 -9.217)"/><path class="b" d="M2593.052,236.884v49.792c0,.822.622,3.067,2.859,3.067l20.544-.748a12.548,12.548,0,0,0,6.933-2.616h0a.565.565,0,0,1,.9.561c-.17.78-4.046,4.454-4.046,4.454h-36.759a.629.629,0,0,1-.446-1.073s4.492-1.69,4.492-4.871v-47.34" transform="translate(-78.574 -5.099)"/><rect class="b" width="13.769" height="1.651" transform="translate(2286.022 227.067)"/><path class="b" d="M2334.163,231.211v1.651c5.979.06,10.81,4.753,10.81,11.345a11.2,11.2,0,0,1-9.047,11.344h-15.532V257.2h13.77c8.978-.064,16.231-5.855,16.231-13S2343.14,231.275,2334.163,231.211Z" transform="translate(-34.372 -4.144)"/><path class="b" d="M2320.445,285.721V235.929c0-.821.622-3.067,2.858-3.067l1.035-1.651h-13.46a.629.629,0,0,0-.446,1.072s4.492,1.69,4.492,4.872v47.34c0,3.182-4.492,4.871-4.492,4.871a.63.63,0,0,0,.446,1.073h9.567" transform="translate(-32.663 -4.144)"/><path class="b" d="M2321.977,238.359V285.7c0,3.182,4.491,4.871,4.491,4.871a.629.629,0,0,1-.446,1.073h-6.805" transform="translate(-34.174 -5.348)"/><path class="b" d="M2405.053,239.563l-3.144-8.352H2392.3l.011,0h-.71l0,0h-13.46c-.01,0-.018,0-.027,0h-.505l.01,0h-9.612l-3.145,8.352a.417.417,0,0,0,.7.43,35.189,35.189,0,0,1,4.492-4.223,36.112,36.112,0,0,1,4.471-3.037,3.938,3.938,0,0,1,1.987-.45h1.185s4.491,1.69,4.491,4.872v47.339c0,3.182-4.491,4.872-4.491,4.872a.629.629,0,0,0,.446,1.073h13.634a.629.629,0,0,0,.446-1.073s-4.491-1.69-4.491-4.872V235.929c0-.821.6-3.646,2.837-3.646h2.838a3.938,3.938,0,0,1,1.988.45,36.038,36.038,0,0,1,4.47,3.037,35.165,35.165,0,0,1,4.493,4.223A.417.417,0,0,0,2405.053,239.563Z" transform="translate(-41.856 -4.144)"/><path class="b" d="M2371.343,294.528s-21.23,5.2-24.381-21.371c-1.079-9.1-14.445-11.3-18.486-11.3h-9.755s-.08.888,4.921.888c4.707,0,16.855,2.082,19.156,13.411,2.482,12.225,7.981,19.21,11.176,19.327l16.924.114A.629.629,0,0,0,2371.343,294.528Z" transform="translate(-34.09 -9.306)"/><path class="b" d="M2126.523,284.495h0v-47.34c0-3.182,4.491-4.872,4.491-4.872a.629.629,0,0,0-.445-1.072h-13.634a.628.628,0,0,0-.445,1.072s.069.027.192.079c.86.367,4.3,2.009,4.3,4.793v47.34c0,3.182-4.49,4.871-4.49,4.871a.629.629,0,0,0,.445,1.073h13.634a.629.629,0,0,0,.445-1.073S2126.523,287.676,2126.523,284.495Z" transform="translate(0 -4.144)"/><path class="b" d="M2164.138,284.495h0v-47.34c0-3.182,4.491-4.872,4.491-4.872a.629.629,0,0,0-.446-1.072H2154.55a.629.629,0,0,0-.446,1.072s.071.027.193.079c.859.367,4.3,2.009,4.3,4.793v47.34c0,3.182-4.491,4.871-4.491,4.871a.629.629,0,0,0,.446,1.073h13.633a.629.629,0,0,0,.446-1.073S2164.138,287.676,2164.138,284.495Z" transform="translate(-6.335 -4.144)"/><g transform="translate(2460.366 226.564)"><path class="b" d="M2540.5,256.13a29.5,29.5,0,0,0,13.148,7.453v.005c7.477,2.082,13.068,8.014,12.691,14.482-.434,7.43-9.208,11.715-18.731,10.249-.245-.038-.486-.087-.73-.133-7.345-1.255-13.9-5.686-15.25-11.2l-.3-.207.048.6c.292,3.632,1.97,5.474,4.546,7.858a15.9,15.9,0,0,0,10.917,4.205l3.456-.022-.01-.006c10.664.048,19.488-5.385,19.82-13.993a14.374,14.374,0,0,0-1.485-6.835,19.217,19.217,0,0,0-3.382-4.827l.061-.009a27.581,27.581,0,0,0-14.048-7.642V256.1c-6.993-1.5-12.756-6.533-13.68-11.956-1.036-6.087,4.261-11.337,12.789-11.307a21.676,21.676,0,0,1,3.38.294c6.989,1.321,12.779,4.935,14.117,10.4l.3.207-.047-.6c-.594-7.641-6.934-12.562-14.654-12.537h0v.08l-.117-.079c-12.154.038-19.67,7.552-18.126,16.231a17.862,17.862,0,0,0,5.252,9.292" transform="translate(-2530.264 -230.606)"/><path class="b" d="M2546.662,297.365a59.549,59.549,0,0,1-7.681-3.2c-4.735-2.3-5.57-6.447-7.875-8.87h0c-.483-.507-1.173.071-1.043.878.2,1.218,4.676,12.453,4.676,12.453h10.585" transform="translate(-2530.047 -239.784)"/><path class="b" d="M2556.812,232.055a59.736,59.736,0,0,1,7.682,3.2c4.735,2.3,5.569,6.448,7.875,8.87h0c.483.507,1.172-.07,1.042-.878-.2-1.217-4.676-12.452-4.676-12.452h-10.584" transform="translate(-2534.554 -230.638)"/></g></g></svg>